{"title":"The Three Stooges 2012 BRRip XviD AC3 - ADTRG","uid":7417628,"size":1507786912,"categoryP":"video","categoryS":"movies","magnet":"?xt=urn:btih:2a9a9198489de435e750f639504b7cc4869506d0&amp;dn=The+Three+Stooges+2012+BRRip+XviD+AC3+-+ADTRG&amp;tr=udp%3A%2F%2Ftracker.openbittorrent.com%3A80&amp;tr=udp%3A%2F%2Fopen.demonii.com%3A1337&amp;tr=udp%3A%2F%2Ftracker.coppersurfer.tk%3A6969&amp;tr=udp%3A%2F%2Fexodus.desync.com%3A6969","seeders":4,"leechers":0,"uploader":"tykoon123","files":-1,"time":1341571340,"description":"Poster: &lt;a href=&quot;\nhttp://imageplay.net/img/tya22274456/The_Three_Stooges_2012.jpg&quot; rel=&quot;nofollow&quot; target=&quot;_NEW&quot;&gt;\nhttp://imageplay.net/img/tya22274456/The_Three_Stooges_2012.jpg&lt;/a&gt;\n\n\nInfo:\nFormat : AVI\nFormat/Info : Audio Video Interleave\nFile size : 1.39 GiB\nDuration : 1h 32mn\nOverall bit rate : 2 155 Kbps\nWriting application : VirtualDubMod 1.5.10.2 (build 2540/release)\nWriting library : VirtualDubMod build 2540/release\n\nVideo\nID : 0\nFormat : MPEG-4 Visual\nFormat profile : Advanced Simple@L5\nFormat settings, BVOP : 2\nFormat settings, QPel : No\nFormat settings, GMC : No warppoints\nFormat settings, Matrix : Default (H.263)\nCodec ID : XVID\nCodec ID/Hint : XviD\nDuration : 1h 32mn\nBit rate : 1 697 Kbps\nWidth : 720 pixels\nHeight : 384 pixels\nDisplay aspect ratio : 1.875\nFrame rate : 23.976 fps\nColor space : YUV\nChroma subsampling : 4:2:0\nBit depth : 8 bits\nScan type : Progressive\nCompression mode : Lossy\nBits/(Pixel*Frame) : 0.256\nStream size : 1.09 GiB (79%)\nWriting library : XviD 1.2.1 (UTC 2008-12-04)\n\nAudio\nID : 1\nFormat : AC-3\nFormat/Info : Audio Coding 3\nMode extension : CM (complete main)\nCodec ID : 2000\nDuration : 1h 32mn\nBit rate mode : Constant\nBit rate : 448 Kbps\nChannel(s) : 6 channels\nChannel positions : Front: L C R, Side: L R, LFE\nSampling rate : 48.0 KHz\nBit depth : 16 bits\nCompression mode : Lossy\nStream size : 295 MiB (21%)\nAlignment : Split accross interleaves\nInterleave, duration : 42 ms (1.00 video frame)\nInterleave, preload duration : 500 ms\n\nSCREENS: &lt;a href=&quot;\nhttp://imageplay.net/img/tya22274472/a.png&quot; rel=&quot;nofollow&quot; target=&quot;_NEW&quot;&gt;\nhttp://imageplay.net/img/tya22274472/a.png&lt;/a&gt; &lt;a href=&quot;\nhttp://imageplay.net/img/tya22274471/b.png&quot; rel=&quot;nofollow&quot; target=&quot;_NEW&quot;&gt;\nhttp://imageplay.net/img/tya22274471/b.png&lt;/a&gt; &lt;a href=&quot;\nhttp://imageplay.net/img/tya22274470/c.png&quot; rel=&quot;nofollow&quot; target=&quot;_NEW&quot;&gt;\nhttp://imageplay.net/img/tya22274470/c.png&lt;/a&gt; &lt;a href=&quot;\nhttp://imageplay.net/img/tya22274469/d.png&quot; rel=&quot;nofollow&quot; target=&quot;_NEW&quot;&gt;\nhttp://imageplay.net/img/tya22274469/d.png&lt;/a&gt; &lt;a href=&quot;\nhttp://imageplay.net/img/tya22274468/e.png&quot; rel=&quot;nofollow&quot; target=&quot;_NEW&quot;&gt;\nhttp://imageplay.net/img/tya22274468/e.png&lt;/a&gt; &lt;a href=&quot;\nhttp://imageplay.net/img/tya22274467/f.png&quot; rel=&quot;nofollow&quot; target=&quot;_NEW&quot;&gt;\nhttp://imageplay.net/img/tya22274467/f.png&lt;/a&gt;","torrent":{"xt":"urn:btih:2a9a9198489de435e750f639504b7cc4869506d0","amp;dn":"The+Three+Stooges+2012+BRRip+XviD+AC3+-+ADTRG","amp;tr":["udp%3A%2F%2Ftracker.openbittorrent.com%3A80","udp%3A%2F%2Fopen.demonii.com%3A1337","udp%3A%2F%2Ftracker.coppersurfer.tk%3A6969","udp%3A%2F%2Fexodus.desync.com%3A6969"],"infoHash":"2a9a9198489de435e750f639504b7cc4869506d0","infoHashBuffer":{"type":"Buffer","data":[42,154,145,152,72,157,228,53,231,80,246,57,80,75,124,196,134,149,6,208]},"announce":[],"urlList":[]}}